<?xml version="1.0" standalone="no"?>
<!DOCTYPE svg PUBLIC "-//W3C//DTD SVG 20010904//EN"
 "http://www.w3.org/TR/2001/REC-SVG-20010904/DTD/svg10.dtd">
<svg version="1.0" xmlns="http://www.w3.org/2000/svg"
 width="920.000000pt" height="1176.000000pt" viewBox="0 0 920.000000 1176.000000"
 preserveAspectRatio="xMidYMid meet">

<g transform="translate(0.000000,1176.000000) scale(0.100000,-0.100000)"
fill="#000000" stroke="none">
<path d="M2781 11573 c-24 -103 -84 -371 -111 -493 -68 -311 -94 -411 -118
-460 -27 -53 -198 -345 -505 -860 l-146 -245 239 -235 239 -235 2 -80 c1 -44
6 -86 11 -92 8 -10 133 -13 563 -13 l552 0 -5 101 -5 101 226 227 226 226
-331 560 c-208 353 -335 579 -344 610 -13 50 -30 126 -98 425 -19 85 -51 227
-71 315 -20 88 -41 177 -46 198 l-10 37 -124 0 -123 0 -21 -87z m109 -778 l0
-784 -37 -10 c-85 -23 -160 -119 -170 -215 -8 -75 11 -137 60 -192 57 -65 107
-88 192 -88 84 0 132 22 192 86 119 130 53 367 -114 410 l-43 10 0 784 c0 724
5 872 25 742 3 -24 17 -95 31 -158 25 -113 40 -181 129 -575 l46 -200 94 -160
c52 -88 196 -331 320 -540 l225 -380 -211 -207 -212 -208 -489 0 -490 0 -207
202 c-113 110 -206 208 -205 217 0 9 141 254 312 544 l311 528 25 107 c14 59
41 179 61 267 19 88 44 198 55 245 10 47 31 139 45 205 15 66 29 128 31 138
20 70 24 -53 24 -768z m135 -877 c39 -21 61 -45 80 -91 22 -52 19 -96 -11
-154 -20 -42 -35 -57 -77 -77 -59 -30 -93 -32 -145 -11 -100 42 -146 147 -107
242 44 105 156 144 260 91z m395 -948 l0 -50 -475 0 -475 0 0 50 0 50 475 0
475 0 0 -50z"/>
<path d="M4600 10026 c-19 -7 -66 -24 -105 -38 -125 -46 -265 -116 -373 -189
-126 -85 -202 -141 -202 -149 0 -3 14 -25 30 -47 l31 -42 100 79 c134 104 311
195 480 246 l56 17 169 -98 c172 -100 792 -482 1052 -649 306 -196 553 -398
843 -687 352 -353 558 -621 817 -1059 186 -315 287 -533 337 -728 93 -357 63
-884 -71 -1211 -94 -234 -261 -471 -467 -667 -73 -70 -104 -126 -120 -219 -12
-69 1 -151 26 -167 31 -20 48 -7 78 56 26 55 39 70 100 112 164 115 201 145
324 269 156 156 243 275 329 450 115 232 170 450 197 772 23 269 -15 512 -121
778 -70 176 -312 632 -438 825 -166 256 -378 508 -686 815 -496 496 -834 752
-1446 1097 -379 214 -577 316 -807 417 -80 35 -84 35 -133 17z"/>
<path d="M4485 9772 c-172 -60 -328 -147 -403 -224 l-32 -34 29 -28 30 -29 78
63 c89 72 179 118 343 175 98 34 115 43 118 63 4 27 -14 52 -37 52 -9 0 -65
-17 -126 -38z"/>
<path d="M3771 9244 l-221 -216 0 -84 0 -84 45 0 45 0 0 68 -1 67 206 200 205
200 -29 33 -28 33 -222 -217z"/>
<path d="M5225 9170 c-3 -5 0 -10 8 -10 7 0 67 -36 132 -81 548 -374 1041
-874 1365 -1382 198 -310 365 -710 422 -1007 19 -103 16 -484 -5 -597 -33
-176 -83 -326 -157 -474 -28 -55 -38 -85 -31 -92 5 -5 52 -12 104 -15 192 -10
317 48 382 177 67 136 103 257 129 449 47 336 -14 595 -254 1067 -138 272
-299 518 -475 725 -93 109 -366 377 -515 504 -249 213 -554 428 -885 623 -214
126 -212 125 -220 113z"/>
<path d="M2230 6528 l0 -2252 -55 -56 -55 -55 225 -225 225 -225 113 113 112
112 3 2420 2 2420 -285 0 -285 0 0 -2252z"/>
<path d="M2828 6358 l2 -2423 -120 -120 -121 -121 21 -19 c21 -19 21 -18 145
105 l125 125 0 2437 0 2438 -27 0 -28 0 3 -2422z"/>
<path d="M3006 6318 l2 -2463 -212 -213 c-116 -116 -216 -212 -221 -212 -6 0
-29 18 -50 40 l-39 40 44 45 c44 45 44 45 24 65 -20 20 -20 20 -84 -45 l-65
-65 83 -83 82 -82 245 245 245 245 0 2472 0 2473 -27 0 -28 0 1 -2462z"/>
<path d="M3090 6297 l0 -2482 -260 -260 -260 -260 -105 105 -105 105 77 77 78
78 -223 223 -222 222 -285 -285 -285 -285 615 -620 c338 -340 618 -616 622
-612 4 4 216 215 470 469 l463 463 0 88 0 87 -80 0 -80 0 0 395 0 395 75 0 75
0 0 2290 0 2290 -285 0 -285 0 0 -2483z"/>
<path d="M3720 6622 c0 -1665 3 -2161 12 -2170 17 -17 44 -15 62 4 14 14 16
225 16 2170 l0 2154 -45 0 -45 0 0 -2158z"/>
<path d="M3724 4341 c-2 -2 -4 -48 -4 -102 l0 -98 -77 -3 -78 -3 -3 -332 -2
-333 79 0 c63 0 80 -3 85 -16 3 -9 6 -56 6 -105 l0 -89 1953 1 c1257 0 1947 4
1937 10 -8 5 -78 46 -155 90 -177 103 -233 145 -280 209 -53 73 -76 140 -77
226 0 96 23 169 75 240 54 73 67 84 142 124 33 18 78 45 100 59 22 15 77 49
123 75 45 26 82 49 82 49 0 4 -3902 2 -3906 -2z m3586 -159 c0 -5 -10 -12 -22
-16 -13 -3 -337 -6 -720 -6 -459 0 -698 -3 -698 -10 0 -7 235 -10 686 -10 454
0 683 -3 679 -10 -4 -6 -207 -10 -576 -10 -373 0 -569 -3 -569 -10 0 -7 192
-10 556 -10 367 0 553 -3 549 -10 -4 -6 -182 -10 -501 -10 -392 0 -495 -3
-492 -12 4 -10 111 -14 482 -16 312 -1 475 -6 471 -12 -4 -6 -197 -10 -536
-10 -351 0 -528 -3 -524 -10 4 -6 188 -10 521 -10 336 0 514 -3 514 -10 0 -7
-175 -10 -505 -10 -330 0 -505 -3 -505 -10 0 -7 172 -10 495 -10 323 0 495 -3
495 -10 0 -7 -203 -10 -587 -10 -324 0 -618 -3 -655 -6 -176 -17 -3 -24 588
-24 428 0 643 -3 639 -10 -4 -6 -102 -10 -261 -10 -163 0 -254 -4 -254 -10 0
-6 92 -10 255 -10 163 0 255 -4 255 -10 0 -6 -92 -10 -255 -10 -163 0 -255 -4
-255 -10 0 -6 90 -10 250 -10 138 0 250 -4 250 -9 0 -10 -894 -26 -909 -16 -6
3 -11 0 -11 -8 0 -12 66 -14 457 -13 357 1 457 -2 460 -11 4 -10 -94 -13 -466
-13 -307 0 -471 -3 -471 -10 0 -7 165 -10 475 -10 310 0 475 -3 475 -10 0 -7
-158 -10 -455 -10 -297 0 -455 -3 -455 -10 0 -7 158 -10 454 -10 289 0 457 -4
461 -10 4 -6 -140 -11 -414 -12 -272 -2 -421 -7 -421 -13 0 -6 150 -11 425
-13 272 -1 425 -6 425 -12 0 -6 -139 -10 -390 -10 -253 0 -390 -4 -390 -10 0
-6 140 -10 400 -10 260 0 400 -3 400 -10 0 -6 -128 -10 -365 -10 -237 0 -365
-4 -365 -10 0 -6 131 -10 374 -10 236 0 377 -4 381 -10 4 -6 -126 -11 -372
-12 -244 -2 -378 -7 -378 -13 0 -6 138 -11 390 -13 239 -1 393 -6 399 -12 7
-7 -126 -10 -387 -10 -258 0 -397 -4 -397 -10 0 -7 143 -10 409 -10 263 0 412
-4 416 -10 4 -7 -133 -10 -404 -10 -322 0 -411 -3 -411 -12 0 -10 90 -13 419
-12 420 2 471 0 471 -18 0 -5 -630 -7 -1612 -4 -1884 6 -1658 4 -1658 15 0 6
321 9 825 8 654 -2 825 1 825 11 0 9 -183 12 -879 12 -576 0 -882 3 -886 10
-4 7 243 10 735 10 492 0 739 3 735 10 -4 7 -270 10 -765 10 -495 0 -761 3
-765 10 -4 7 200 10 604 10 540 0 611 2 611 15 0 14 -47 15 -387 15 -825 -1
-873 0 -873 11 0 7 57 10 188 7 365 -6 1103 2 1097 12 -4 7 -235 10 -660 10
-425 0 -656 3 -660 10 -4 7 227 10 684 10 454 0 691 3 691 10 0 7 -238 10
-694 10 -453 0 -697 3 -701 10 -4 7 238 10 719 10 639 0 726 2 726 15 0 13
-88 15 -735 15 -483 0 -735 3 -735 10 0 7 285 10 835 10 550 0 835 3 835 10 0
7 -287 10 -840 10 -553 0 -840 3 -840 10 0 7 295 10 865 10 570 0 865 3 865
10 0 7 -295 10 -866 10 -688 0 -865 3 -861 13 3 9 185 12 865 12 683 0 862 3
862 13 0 9 -180 12 -865 12 -570 0 -865 3 -865 10 0 7 295 10 865 10 570 0
865 3 865 10 0 7 -295 10 -865 10 -570 0 -865 3 -865 10 0 7 188 10 544 10
353 0 547 4 551 10 4 7 -178 10 -539 10 -357 0 -546 3 -546 10 0 7 195 10 565
10 496 0 565 2 565 15 0 13 -68 15 -555 15 -363 0 -555 3 -555 10 0 7 260 10
760 10 500 0 760 3 760 10 0 7 -257 10 -751 10 -497 0 -748 3 -744 10 4 7 255
10 721 10 469 0 714 3 714 10 0 10 -754 16 -1219 11 -135 -2 -191 1 -186 8 4
8 219 11 701 11 610 0 694 2 694 15 0 13 -82 15 -676 15 -447 0 -673 3 -669
10 4 6 210 10 586 10 379 0 579 3 579 10 0 7 -192 10 -556 10 -367 0 -553 3
-549 10 4 6 188 10 521 10 336 0 514 3 514 10 0 7 -162 10 -467 10 -283 0
-463 4 -457 9 5 5 20 11 34 13 65 8 3240 9 3240 0z"/>
<path d="M7737 2732 c-56 -88 -77 -131 -77 -157 0 -7 20 -21 45 -30 42 -17 46
-17 76 1 18 11 40 31 48 45 9 14 28 44 44 67 15 23 27 50 27 61 0 17 -84 101
-101 101 -4 0 -32 -40 -62 -88z"/>
<path d="M3633 2710 c-26 -40 -61 -92 -77 -117 l-29 -44 43 -44 c24 -25 50
-45 57 -45 15 0 81 70 110 118 13 20 23 51 23 67 0 33 -48 126 -67 133 -7 2
-34 -29 -60 -68z"/>
<path d="M7836 2493 c-19 -32 -42 -68 -51 -81 l-16 -22 -42 35 c-55 48 -85 55
-108 26 -27 -34 -119 -206 -119 -224 0 -17 77 -66 110 -69 18 -2 31 11 62 62
22 36 43 69 48 74 5 5 37 -7 73 -28 36 -20 67 -36 70 -36 3 0 33 47 67 105 63
108 65 121 32 160 -20 23 -67 55 -81 55 -5 0 -25 -26 -45 -57z"/>
<path d="M8506 2455 c-20 -30 -36 -57 -36 -60 0 -2 -14 -24 -31 -49 -16 -25
-31 -58 -32 -72 -2 -22 4 -29 36 -40 21 -7 51 -23 68 -35 17 -12 32 -20 33
-18 2 2 14 24 28 49 14 25 39 67 57 94 46 74 37 143 -23 165 -64 25 -63 25
-100 -34z"/>
<path d="M3709 2438 c-56 -74 -92 -108 -114 -108 -11 0 -39 18 -60 40 -21 22
-47 40 -57 40 -30 0 -168 -201 -168 -244 0 -19 79 -89 118 -103 15 -6 93 65
123 115 27 42 50 41 99 -8 22 -22 46 -40 54 -40 14 0 107 117 145 182 15 24
20 45 16 61 -8 31 -83 107 -106 107 -9 0 -32 -19 -50 -42z"/>
<path d="M6143 2388 c-6 -7 -30 -49 -53 -93 -24 -44 -49 -91 -56 -105 -21 -38
-17 -58 14 -77 15 -9 39 -27 53 -40 l26 -24 30 38 c37 46 78 127 87 169 8 38
-4 70 -43 112 -33 35 -43 39 -58 20z"/>
<path d="M4433 2331 c-24 -36 -40 -50 -64 -55 -51 -10 -117 -87 -171 -198 -46
-95 -67 -118 -107 -118 -12 0 -31 -11 -43 -25 -12 -14 -27 -25 -33 -25 -6 0
-24 -13 -40 -30 -30 -32 -54 -37 -83 -19 -25 16 -88 -3 -154 -47 -72 -48 -201
-185 -245 -261 -38 -64 -71 -86 -59 -39 4 16 -1 32 -16 51 -19 24 -26 27 -67
22 -41 -5 -52 -12 -98 -64 -29 -32 -74 -89 -100 -128 -26 -38 -71 -102 -100
-141 -29 -39 -53 -74 -53 -78 0 -23 48 27 104 108 97 138 154 196 194 196 64
0 109 -85 60 -111 -12 -7 -49 -33 -83 -59 -112 -89 -399 -254 -546 -315 -201
-84 -421 -141 -712 -185 -97 -14 -349 -20 -487 -10 -122 9 -301 42 -380 71
-115 42 -273 149 -319 215 -12 18 -27 61 -33 96 -10 61 -9 70 19 144 32 84 53
161 53 195 0 17 -4 19 -22 13 -49 -15 -99 -115 -162 -321 -37 -123 -96 -207
-186 -268 -75 -50 -110 -93 -110 -132 0 -32 15 -36 68 -17 69 25 100 52 167
143 32 44 63 81 67 81 4 0 8 -17 8 -37 0 -54 24 -136 54 -187 41 -70 155 -169
249 -214 151 -74 391 -109 687 -98 149 5 398 41 460 66 14 6 68 21 120 34 52
13 118 33 145 44 28 12 70 27 95 35 128 41 345 160 625 342 44 29 97 55 118
58 21 3 59 19 85 34 26 16 77 41 114 57 95 40 154 80 174 118 9 18 31 53 48
78 43 61 80 154 72 183 -10 42 -54 77 -97 77 -22 0 -39 4 -39 8 0 4 17 24 38
43 81 78 127 95 163 63 10 -9 33 -16 51 -17 32 0 52 10 153 80 22 15 57 36 77
46 53 26 148 143 177 216 31 79 39 85 105 77 l54 -6 46 52 46 53 -6 70 c-3 38
-8 73 -11 77 -12 20 -41 3 -70 -41z m-814 -882 c17 -6 31 -17 31 -23 0 -26
-61 -96 -117 -134 -84 -57 -173 -105 -173 -94 0 5 16 30 35 55 42 54 55 87 55
132 0 27 6 37 33 53 36 23 89 27 136 11z"/>
<path d="M8233 2313 c-16 -21 -45 -63 -65 -93 -45 -67 -267 -348 -423 -535
-33 -40 -105 -130 -160 -200 -274 -351 -336 -425 -356 -425 -19 0 -21 4 -15
38 34 193 51 282 72 367 27 112 30 150 12 161 -25 16 -64 -64 -114 -236 -37
-128 -145 -673 -151 -766 -9 -126 2 -172 48 -216 64 -61 156 -63 245 -5 65 42
104 104 147 229 20 57 44 124 53 149 l18 46 80 6 c71 6 93 12 171 53 50 26
129 66 177 90 137 68 207 143 241 261 9 28 20 60 26 71 18 33 34 243 22 275
-19 50 -42 30 -105 -95 -57 -113 -59 -119 -48 -156 22 -71 16 -108 -24 -152
-29 -32 -43 -40 -70 -40 -24 0 -41 -8 -56 -25 -12 -14 -31 -25 -43 -25 -12 0
-34 -11 -49 -25 -15 -14 -39 -28 -54 -32 -15 -3 -43 -14 -62 -24 -57 -29 -82
-27 -126 8 -42 33 -136 63 -198 63 -20 0 -36 5 -36 11 0 6 37 52 83 103 110
120 281 323 392 466 160 205 239 310 265 350 14 21 42 64 63 94 56 82 110 201
102 225 -10 31 -30 25 -62 -16z m-835 -1398 c52 -7 73 -19 92 -55 20 -38 -33
-124 -103 -164 -56 -32 -97 -39 -147 -26 -60 16 -81 55 -78 145 3 67 4 70 33
84 31 16 109 30 135 25 8 -1 39 -6 68 -9z"/>
<path d="M8112 2293 c-11 -16 -52 -82 -92 -148 -41 -65 -109 -169 -152 -229
-43 -60 -76 -112 -73 -115 11 -11 167 193 255 334 35 55 74 114 87 131 12 17
23 36 23 42 0 22 -28 12 -48 -15z"/>
<path d="M2609 2047 c-117 -56 -215 -99 -329 -142 -320 -121 -495 -211 -578
-296 -37 -38 -82 -123 -82 -154 0 -12 7 -45 16 -74 18 -61 13 -72 -62 -148
-44 -43 -54 -63 -33 -63 17 0 126 109 160 159 30 44 31 49 25 129 -5 79 -4 83
19 98 29 19 241 114 345 155 41 17 89 36 105 43 17 8 53 22 80 31 28 10 55 22
61 27 6 4 28 14 50 22 76 26 234 107 254 129 26 28 80 108 80 119 0 15 -24 7
-111 -35z"/>
<path d="M5580 1848 c-49 -80 -52 -141 -7 -146 15 -2 27 -9 27 -16 0 -24 -40
-65 -96 -98 -29 -18 -54 -36 -54 -40 0 -16 44 -7 84 16 94 55 162 208 125 279
-25 47 -52 48 -79 5z"/>
<path d="M6511 1854 c-41 -34 -101 -163 -108 -230 -5 -47 -3 -55 21 -79 26
-26 30 -27 96 -20 65 7 69 6 85 -18 13 -20 13 -29 4 -50 -11 -24 -82 -67 -111
-67 -8 0 -23 -7 -34 -15 -10 -8 -25 -15 -32 -15 -23 0 -117 -72 -183 -140 -42
-43 -92 -113 -139 -191 -87 -147 -150 -247 -165 -263 -6 -6 -24 -29 -40 -51
-31 -43 -80 -91 -140 -140 -20 -16 -43 -36 -50 -42 -8 -7 -17 -13 -20 -13 -4
0 -37 -23 -74 -52 -36 -29 -68 -53 -70 -55 -13 -9 10 -13 26 -4 10 5 41 20 68
33 28 13 55 26 60 31 59 45 105 77 110 77 10 0 83 59 120 96 89 90 188 223
263 354 31 56 91 120 111 120 6 0 11 3 11 8 0 12 61 44 135 70 105 37 163 87
219 186 40 73 62 141 70 220 9 90 -18 176 -74 235 -34 36 -45 41 -84 41 -33 0
-52 -6 -75 -26z"/>
<path d="M5012 1743 c-11 -16 -27 -44 -37 -63 -19 -39 -52 -69 -75 -70 -8 0
-36 -23 -61 -50 -45 -49 -47 -50 -91 -44 -64 9 -108 -15 -203 -110 -99 -99
-148 -170 -208 -303 -79 -172 -72 -214 44 -270 100 -48 125 -91 87 -153 -101
-168 -291 -284 -499 -307 -74 -7 -180 25 -227 70 -63 60 -77 99 -77 217 0 95
3 112 31 180 45 107 94 211 114 240 24 35 52 132 41 143 -10 10 -61 -52 -61
-74 0 -8 -16 -41 -37 -74 -62 -102 -143 -285 -169 -380 -54 -198 -59 -237 -47
-324 24 -163 102 -249 254 -282 155 -33 406 69 544 223 76 84 105 134 163 272
81 197 91 230 98 330 6 88 6 94 -20 135 -15 23 -47 56 -72 74 -77 54 -71 89
29 171 74 60 96 66 141 37 36 -24 47 -20 117 41 31 26 73 55 92 63 90 37 210
253 177 315 -14 27 -25 25 -48 -7z"/>
<path d="M8591 1543 c-70 -140 -110 -274 -178 -608 -50 -245 -32 -297 49 -135
77 156 104 258 149 575 11 77 22 155 25 173 9 46 -20 43 -45 -5z"/>
<path d="M5415 1158 c-30 -62 -55 -119 -55 -127 0 -7 22 -38 50 -68 27 -30 55
-72 61 -94 15 -49 5 -66 -102 -158 -155 -134 -181 -159 -175 -170 11 -17 29
-13 77 17 24 16 73 47 109 70 125 79 237 266 247 411 7 92 -12 138 -78 195
-66 56 -72 52 -134 -76z"/>
<path d="M8821 1159 c-28 -60 -51 -121 -51 -134 0 -15 11 -32 30 -45 41 -29
80 -99 80 -143 0 -34 -8 -43 -137 -154 -76 -66 -139 -127 -141 -136 -6 -31 30
-18 133 47 72 45 116 81 156 129 88 104 149 245 149 342 -1 90 -86 205 -153
205 -8 0 -36 -47 -66 -111z"/>
<path d="M5005 1188 c-27 -25 -101 -195 -111 -257 -8 -52 18 -81 79 -88 36 -4
47 -10 47 -23 0 -43 -119 -162 -200 -199 -19 -9 -50 -27 -68 -39 -27 -20 -31
-26 -20 -39 19 -23 89 -11 155 29 125 73 260 284 271 420 6 91 -2 128 -44 176
-41 48 -70 53 -109 20z"/>
<path d="M6610 1127 c-14 -6 -27 -12 -28 -13 -2 -1 -21 -51 -43 -110 -42 -115
-47 -155 -25 -173 12 -10 8 -26 -25 -100 -49 -112 -53 -179 -13 -216 42 -39
84 -32 150 25 84 72 162 216 173 320 21 181 -76 318 -189 267z m26 -294 c14
-9 34 -34 46 -57 19 -38 20 -41 4 -71 -9 -17 -37 -42 -61 -55 -42 -23 -44 -23
-70 -6 -25 16 -27 22 -21 62 8 59 45 144 63 144 7 0 25 -7 39 -17z"/>
<path d="M92 763 c-6 -16 -14 -39 -17 -53 -7 -29 16 -102 33 -108 9 -3 9 5 1
28 -11 31 -8 109 6 143 4 9 3 17 -3 17 -5 0 -14 -12 -20 -27z"/>
<path d="M165 766 c-10 -15 -18 -43 -19 -64 -1 -41 21 -102 36 -102 6 0 7 8 3
18 -14 34 -17 101 -6 133 14 41 7 48 -14 15z"/>
<path d="M3136 763 c11 -36 11 -100 1 -135 -10 -39 8 -35 22 3 15 45 14 95 -4
129 -19 38 -30 39 -19 3z"/>
<path d="M3206 770 c11 -32 12 -118 1 -147 -13 -35 9 -28 23 7 17 40 8 127
-15 148 -16 16 -17 16 -9 -8z"/>
</g>
</svg>
