<?xml version="1.0" standalone="no"?>
<!DOCTYPE svg PUBLIC "-//W3C//DTD SVG 20010904//EN"
 "http://www.w3.org/TR/2001/REC-SVG-20010904/DTD/svg10.dtd">
<svg version="1.0" xmlns="http://www.w3.org/2000/svg"
 width="594.000000pt" height="594.000000pt" viewBox="0 0 594.000000 594.000000"
 preserveAspectRatio="xMidYMid meet">

<g transform="translate(0.000000,594.000000) scale(0.100000,-0.100000)"
fill="#000000" stroke="none">
<path d="M0 2970 l0 -2970 2970 0 2970 0 0 2970 0 2970 -2970 0 -2970 0 0
-2970z m2001 1853 c53 -31 62 -109 18 -149 -12 -11 -19 -30 -19 -56 l0 -38
128 0 c80 -1 141 -6 165 -14 89 -32 152 -111 163 -206 l6 -55 -301 3 c-330 3
-350 0 -387 -56 -22 -34 -22 -98 0 -140 30 -58 54 -62 353 -62 148 0 283 4
301 9 l32 10 0 -53 c0 -115 -48 -201 -136 -246 -49 -25 -52 -25 -352 -28 -339
-3 -376 1 -446 59 -21 18 -49 55 -62 83 -23 49 -24 60 -24 276 0 205 2 229 21
270 51 113 128 150 314 150 l125 0 0 45 c0 25 -4 45 -10 45 -13 0 -40 54 -40
81 0 11 15 36 34 55 38 38 72 43 117 17z m-1 -593 c29 -29 26 -74 -6 -99 -15
-12 -34 -21 -44 -21 -29 0 -70 39 -70 68 0 60 78 94 120 52z m350 0 c26 -26
25 -68 -2 -97 -27 -29 -57 -29 -92 -2 -32 25 -34 64 -4 96 27 29 71 30 98 3z
m79 -600 c65 -30 114 -73 143 -127 14 -26 60 -158 102 -293 42 -134 78 -245
79 -245 12 -7 291 -65 294 -61 3 2 54 143 114 313 61 169 114 311 118 316 4 4
289 6 633 5 l625 -3 -168 -470 c-93 -258 -180 -503 -195 -542 l-26 -73 -1272
0 -1271 0 -52 24 c-36 17 -60 38 -80 67 l-28 43 -3 445 c-2 299 0 458 8 483
14 50 56 97 105 119 37 17 73 19 435 19 372 0 398 -2 439 -20z m-1979 -1765
c0 -98 -1 -105 -20 -105 -18 0 -20 7 -20 85 l0 85 -45 0 -45 0 0 -275 0 -275
45 0 45 0 0 85 c0 78 2 85 20 85 19 0 20 -7 20 -105 l0 -105 -80 0 -80 0 0
315 0 315 80 0 80 0 0 -105z m240 -30 l0 -135 -170 0 -170 0 0 105 c0 87 3
105 15 105 12 0 15 -16 15 -85 l0 -85 135 0 135 0 0 115 c0 108 1 115 20 115
19 0 20 -7 20 -135z m130 -180 c0 -308 0 -315 -20 -315 -20 0 -20 7 -20 295 0
256 -2 295 -15 295 -12 0 -15 -19 -15 -115 0 -108 -1 -115 -20 -115 -19 0 -20
7 -20 128 0 71 3 132 7 135 3 4 28 7 55 7 l48 0 0 -315z m487 293 c78 -29 152
-103 182 -183 57 -150 -12 -321 -157 -392 -48 -24 -70 -28 -137 -28 -67 0 -89
4 -137 28 -102 50 -168 146 -176 257 -5 80 8 134 51 196 85 126 234 175 374
122z m643 3 c74 -28 131 -80 170 -153 30 -55 34 -72 34 -138 1 -125 -57 -222
-166 -281 -56 -30 -71 -33 -143 -34 -95 0 -150 21 -219 85 -98 90 -128 239
-73 353 74 149 250 224 397 168z m572 -10 c71 -28 107 -55 92 -71 -8 -8 -28
-2 -74 21 -157 78 -296 33 -307 -100 -8 -87 24 -118 194 -194 47 -20 67 -55
53 -91 -18 -48 -79 -59 -165 -29 -48 16 -49 16 -67 -7 -10 -12 -18 -28 -18
-35 0 -22 133 -58 195 -53 46 4 61 10 91 38 39 39 57 92 47 140 -9 48 -70 104
-134 125 -113 37 -152 98 -93 144 33 26 79 27 143 1 31 -12 53 -16 56 -9 10
15 -63 42 -125 47 -50 4 -60 1 -88 -23 -24 -20 -32 -35 -32 -60 0 -49 31 -80
112 -111 39 -15 87 -42 106 -59 31 -28 35 -38 35 -78 -2 -86 -55 -137 -145
-137 -55 0 -138 27 -138 45 0 23 16 26 60 10 98 -35 175 -8 186 65 8 51 -21
83 -103 112 -92 32 -153 89 -153 144 0 84 69 140 164 132 53 -5 176 -54 176
-70 0 -6 -10 -24 -22 -41 -12 -18 -22 -33 -23 -34 0 -1 -23 9 -50 23 -36 18
-62 24 -95 22 -40 -3 -45 -6 -45 -28 0 -21 11 -29 79 -57 121 -50 168 -104
168 -194 -1 -57 -30 -119 -70 -148 -39 -27 -114 -45 -166 -38 -54 8 -149 43
-175 65 -19 17 -19 18 21 79 l40 63 38 -20 c76 -39 160 -43 160 -7 0 20 -29
41 -85 62 -110 40 -175 113 -175 196 1 74 57 149 135 177 43 16 131 8 197 -17z
m318 -76 c0 -98 -1 -105 -20 -105 -18 0 -20 7 -20 85 l0 85 -40 0 -40 0 0
-275 0 -275 40 0 40 0 0 85 c0 78 2 85 20 85 19 0 20 -7 20 -105 l0 -105 -80
0 -80 0 0 315 0 315 80 0 80 0 0 -105z m240 -30 l0 -135 -170 0 -170 0 0 105
c0 98 1 105 20 105 18 0 20 -7 20 -85 l0 -85 130 0 130 0 0 108 c0 110 3 122
27 122 10 0 13 -29 13 -135z m130 -180 c0 -308 0 -315 -20 -315 -20 0 -20 7
-20 295 0 190 -4 295 -10 295 -6 0 -10 -45 -10 -115 0 -108 -1 -115 -20 -115
-19 0 -20 7 -20 135 l0 135 50 0 50 0 0 -315z m100 20 l0 -295 143 0 c157 0
192 10 231 63 29 39 30 155 3 185 -17 19 -18 22 -2 53 23 44 23 137 0 176 -32
54 -67 67 -197 71 l-118 4 0 -101 0 -101 100 0 c84 0 101 3 108 18 6 9 6 27 1
40 -8 20 -15 22 -79 22 l-70 0 0 -30 c0 -23 -4 -30 -20 -30 -17 0 -20 7 -20
50 l0 50 89 0 c108 0 141 -18 141 -78 0 -70 -25 -82 -175 -82 l-116 0 3 138 3
137 136 -1 c130 -1 139 -2 183 -28 61 -36 86 -85 86 -168 -1 -35 -7 -74 -14
-87 -12 -21 -11 -30 6 -69 38 -86 3 -198 -76 -243 -38 -22 -54 -24 -213 -27
l-173 -4 0 316 c0 309 0 316 20 316 20 0 20 -7 20 -295z m980 -19 c77 -171
140 -311 140 -313 0 -2 -39 -2 -86 -1 l-86 3 -26 62 -27 63 -116 0 -116 0 -16
-40 c-11 -29 -21 -40 -36 -40 -26 0 -26 0 0 61 l21 49 144 0 143 0 27 -60 27
-60 43 0 44 0 -14 33 c-105 247 -231 517 -240 517 -8 0 -206 -435 -242 -532
-5 -16 0 -18 43 -18 47 0 49 1 62 35 l13 36 96 -3 c83 -3 97 -6 100 -20 3 -16
-6 -18 -86 -18 l-90 0 -12 -35 -12 -35 -90 0 c-82 0 -90 2 -84 18 4 9 66 151
139 315 l132 297 33 -2 33 -3 139 -309z m691 0 c76 -170 139 -310 139 -312 0
-2 -38 -4 -84 -4 l-84 0 -31 65 -30 65 -114 0 -114 0 -16 -40 c-11 -30 -21
-40 -37 -40 -14 0 -20 5 -17 13 3 6 13 31 22 55 l17 42 144 0 145 0 26 -60 26
-60 43 0 44 0 -26 58 c-14 31 -69 155 -122 275 -53 119 -100 216 -106 214 -9
-3 -244 -521 -246 -539 0 -5 22 -8 49 -8 48 0 50 1 61 35 l12 36 96 -3 c83 -3
97 -6 100 -20 3 -16 -6 -18 -86 -18 l-90 0 -12 -35 -12 -35 -90 0 c-82 0 -90
2 -83 18 3 9 66 151 138 315 l132 297 33 -2 33 -3 140 -309z m639 306 c0 -4
-64 -131 -143 -282 -120 -230 -147 -276 -166 -278 -17 -3 -22 0 -19 10 3 7 65
126 137 263 l130 250 -164 3 c-157 2 -165 3 -165 22 0 19 7 20 195 20 107 0
195 -3 195 -8z m70 1 c0 -5 -60 -123 -134 -263 l-134 -255 79 -3 c71 -3 79 -5
79 -22 0 -19 -7 -20 -110 -20 -60 0 -110 3 -110 6 0 4 66 132 146 285 114 218
150 279 165 279 10 0 19 -3 19 -7z m-2050 -88 c54 -52 59 -147 10 -200 l-21
-23 25 -27 c54 -58 43 -156 -22 -200 -35 -24 -44 -25 -169 -25 l-133 0 0 105
0 105 119 0 c66 0 127 -3 136 -6 23 -9 46 -60 39 -88 -12 -49 -38 -61 -137
-61 l-92 0 -3 48 c-3 42 -1 47 17 47 17 0 21 -6 21 -30 l0 -30 61 0 c68 0 99
12 99 38 0 35 -21 42 -122 42 l-98 0 0 -65 0 -65 113 0 c116 1 133 6 155 47
24 45 8 111 -32 132 -11 6 -77 12 -146 13 -110 3 -125 5 -128 21 -3 15 8 17
118 17 145 0 174 10 190 69 13 50 -3 97 -41 116 -18 10 -58 15 -119 15 -85 0
-90 1 -90 21 0 21 4 21 109 17 106 -3 111 -4 141 -33z m1862 -17 c-16 -29 -67
-125 -112 -213 -45 -88 -96 -184 -112 -212 l-29 -53 180 0 181 0 0 40 0 40
-75 0 c-41 0 -75 4 -75 9 0 23 32 32 107 29 l78 -3 3 -77 3 -78 -231 0 c-126
0 -230 2 -230 5 0 4 47 95 104 203 57 108 118 225 135 260 l31 62 -95 0 c-57
0 -95 -4 -95 -10 0 -6 33 -10 80 -10 78 0 80 -1 70 -20 -9 -18 -21 -20 -100
-20 l-90 0 0 50 0 50 151 0 150 0 -29 -52z m-1274 -208 c55 -124 102 -232 104
-240 2 -9 -4 -15 -15 -15 -14 0 -38 45 -104 195 -47 107 -88 198 -92 202 -6 7
-102 -205 -101 -224 0 -9 140 -11 140 -3 0 3 -10 25 -21 47 l-22 42 -14 -37
c-10 -25 -21 -37 -35 -37 -23 0 -21 11 22 104 l28 61 49 -105 c28 -58 48 -108
46 -112 -7 -13 -253 -10 -253 3 0 22 154 359 161 352 4 -5 52 -109 107 -233z
m691 0 c55 -124 101 -231 103 -239 2 -8 -5 -17 -15 -19 -13 -3 -23 9 -38 45
-12 26 -48 109 -81 183 -33 74 -65 146 -70 160 -8 22 -14 13 -59 -94 -28 -65
-48 -120 -46 -123 3 -2 34 -3 70 -1 l65 3 -16 38 c-9 20 -20 37 -23 37 -4 0
-12 -13 -19 -30 -8 -18 -20 -30 -31 -30 -11 0 -19 2 -19 5 0 13 63 155 69 155
5 0 79 -159 99 -211 2 -5 -55 -9 -127 -9 -83 0 -131 4 -131 10 0 21 155 359
161 352 4 -4 52 -108 108 -232z m-4169 -145 l0 -165 -50 0 -50 0 0 115 0 115
-135 0 -135 0 0 -91 c0 -81 -2 -90 -17 -87 -16 3 -18 16 -18 108 l0 105 173 3
172 2 0 -115 c0 -70 4 -115 10 -115 6 0 10 50 10 130 l0 130 -185 0 c-158 0
-185 2 -185 15 0 13 29 15 205 15 l205 0 0 -165z m2400 0 l0 -165 -55 0 -55 0
0 115 0 115 -130 0 -129 0 -3 -87 c-3 -74 -6 -88 -20 -91 -16 -3 -18 7 -18
107 l0 111 170 0 170 0 0 -115 c0 -96 3 -115 15 -115 13 0 15 21 15 130 l0
130 -185 0 c-158 0 -185 2 -185 15 0 13 29 15 205 15 l205 0 0 -165z"/>
<path d="M2040 3960 c0 -47 64 -89 115 -76 30 8 65 44 65 68 0 16 -10 18 -90
18 -50 0 -90 -4 -90 -10z"/>
<path d="M3346 3353 c-25 -70 -166 -466 -214 -605 l-27 -78 -233 0 -233 0 -14
34 c-21 50 -80 103 -134 120 -25 9 -147 38 -271 66 -124 28 -233 53 -242 56
-16 5 -18 20 -18 140 l0 134 -45 0 -45 0 0 -169 c0 -153 2 -170 18 -175 9 -3
127 -30 262 -61 135 -30 268 -62 297 -70 67 -19 103 -63 103 -124 l0 -41 756
2 756 3 144 405 c79 222 144 410 144 417 0 10 -95 13 -489 13 l-489 0 -26 -67z
m544 -232 c0 -5 -11 -37 -24 -72 l-24 -64 -87 -3 c-81 -3 -87 -1 -80 15 4 10
16 44 27 76 l20 57 84 0 c46 0 84 -4 84 -9z"/>
<path d="M1077 1906 c-100 -49 -157 -136 -157 -240 0 -203 181 -335 371 -271
178 61 238 297 114 443 -78 90 -222 120 -328 68z m202 -12 c170 -50 226 -284
100 -412 -55 -56 -104 -76 -184 -76 -52 0 -80 5 -111 21 -219 116 -180 423 61
476 41 9 83 7 134 -9z"/>
<path d="M1110 1854 c-174 -75 -172 -326 2 -398 142 -60 299 47 298 203 -1
150 -162 255 -300 195z m169 -24 c120 -61 146 -229 49 -316 -126 -116 -328
-29 -328 141 0 79 45 149 117 181 43 19 119 17 162 -6z"/>
<path d="M1113 1789 c-48 -30 -73 -78 -73 -135 0 -156 207 -213 285 -79 64
108 -8 235 -131 235 -32 0 -60 -7 -81 -21z"/>
<path d="M1725 1906 c-56 -26 -116 -87 -141 -143 -25 -56 -22 -157 5 -218 46
-104 123 -156 241 -163 70 -4 79 -2 140 30 106 54 158 153 146 272 -11 109
-90 209 -184 236 -65 18 -152 12 -207 -14z m202 -11 c59 -18 125 -76 149 -132
24 -58 21 -158 -6 -216 -27 -58 -87 -111 -148 -131 -58 -20 -99 -20 -159 0
-188 64 -238 303 -90 430 70 59 160 77 254 49z"/>
<path d="M1754 1855 c-43 -19 -94 -72 -112 -115 -30 -73 -13 -174 41 -232 69
-74 193 -90 275 -35 128 84 130 273 4 361 -36 25 -54 31 -110 33 -42 1 -79 -3
-98 -12z m198 -41 c54 -38 81 -91 80 -158 -1 -107 -72 -185 -175 -194 -160
-12 -265 159 -181 295 59 95 185 121 276 57z"/>
<path d="M1765 1791 c-66 -41 -93 -103 -75 -173 36 -134 199 -160 284 -45 29
39 28 120 -2 169 -40 65 -143 89 -207 49z"/>
</g>
</svg>
